<svg xmlns="http://www.w3.org/2000/svg" id="mainLogo" viewBox="0.00 0.00 300.00 300.00 " width="1000" height="1000">
  <defs />
  <rect data-logo-bg="" fill="#f2f2f2" width="300" height="300" />
  <g data-refid="icon" fill="#da1e41" data-box="77.10 84.98 145.80 59.84 " transform="matrix(1.1571428571428573 0 0 1.1571428571428573 75.94285714285714 40.842276682172496)">
    <svg xmlns="http://www.w3.org/2000/svg" xmlns:xlink="http://www.w3.org/1999/xlink" version="1.1" x="0px" y="0px" viewBox="0 0 128 128" xml:space="preserve" width="128" height="128" id="FLDSRC_ICON">
      <g>
        <path d="M90.716,58.23c0.106-0.063,0.225-0.094,0.345-0.102l-0.651-8.221l-15.451,8.898l7.379,4.248L90.716,58.23z" />
        <polygon points="38.218,79.959 37.434,89.857 63.781,74.688 55.426,70.053  " />
        <path d="M38.148,49.908l-0.65,8.221c0.119,0.01,0.239,0.039,0.347,0.102l8.789,5.061h0.001l44.49,26.566l-0.785-9.898   L38.148,49.908z" />
        <path d="M99.914,63.055l7.379-4.248L91.84,49.908l-0.65,8.221c0.119,0.008,0.239,0.039,0.348,0.102L99.914,63.055z" />
        <path d="M64.904,53.248l8.394,4.613l17.184-9.895c0.138-0.17,0.341-0.289,0.579-0.309c0.285-0.021,0.547,0.104,0.712,0.313   l17.581,10.121c0.014,0.008,0.025,0.02,0.037,0.027c0.026,0.018,0.05,0.033,0.074,0.053c0.02,0.016,0.039,0.035,0.059,0.055   c0.018,0.018,0.036,0.037,0.053,0.057c0.02,0.023,0.036,0.049,0.053,0.074c0.009,0.014,0.02,0.023,0.038,0.061   c0.014,0.027,0.025,0.055,0.036,0.082c0.01,0.021,0.02,0.047,0.026,0.07c0.008,0.025,0.013,0.051,0.018,0.078   c0.006,0.025,0.012,0.053,0.014,0.078c0.003,0.027,0.002,0.053,0.002,0.08c0,0.025,0.001,0.051-0.002,0.078   c-0.002,0.025-0.008,0.053-0.014,0.078c-0.005,0.027-0.01,0.053-0.018,0.078c-0.007,0.023-0.017,0.047-0.026,0.07   c-0.011,0.027-0.022,0.055-0.047,0.105c-0.005,0.01-0.014,0.016-0.02,0.023c-0.027,0.045-0.059,0.086-0.096,0.125   c-0.012,0.014-0.021,0.025-0.035,0.037c-0.046,0.043-0.096,0.084-0.158,0.119L91.537,69.777c-0.128,0.074-0.271,0.109-0.412,0.109   s-0.283-0.035-0.409-0.109L37.458,38.143L1.573,58.801l35.857,19.713l16.318-9.395l-7.517-4.17l-8.388,4.828   c-0.127,0.074-0.269,0.111-0.41,0.111s-0.284-0.037-0.411-0.111c-0.815-0.451-16.51-9.107-17.285-9.568   c-0.514-0.305-1.114-0.572-1.021-1.271c0.111-0.842,1.209-1.262,1.861-1.637c2.014-1.16,4.028-2.318,6.042-3.479   c2.295-1.322,9.075-5.225,10.17-5.855c0.138-0.17,0.341-0.289,0.579-0.309c0.285-0.021,0.547,0.104,0.713,0.313l53.053,30.545   l35.863-19.709L91.125,38.15L64.904,53.248z" />
        <polygon points="127,58.807 91.91,79.949 91.126,89.857 127,69.203  " />
        <path d="M21.266,58.807l7.381,4.248l8.377-4.824c0.107-0.063,0.226-0.092,0.346-0.102l-0.651-8.221L21.266,58.807z" />
        <polygon points="1,58.807 1,69.203 37.154,89.857 36.229,79.949  " />
      </g>
    </svg>
  </g>
  <path data-refid="title" fill="#0f1223" d="M 16.36-6.34L 16.36-6.34Q 16.36-3.25  14.13-1.47Q 11.91 0.31  7.94 0.31L 7.94 0.31Q 4.28 0.31  1.47-1.06L 1.47-1.06L 1.47-5.56Q 3.78-4.53  5.38-4.11Q 6.98-3.69  8.31-3.69L 8.31-3.69Q 9.91-3.69  10.76-4.3Q 11.61-4.91  11.61-6.11L 11.61-6.11Q 11.61-6.78  11.23-7.3Q 10.86-7.83  10.13-8.31Q 9.41-8.8  7.17-9.86L 7.17-9.86Q 5.08-10.84  4.03-11.75Q 2.98-12.66  2.36-13.86Q 1.73-15.06  1.73-16.67L 1.73-16.67Q 1.73-19.7  3.79-21.44Q 5.84-23.17  9.47-23.17L 9.47-23.17Q 11.25-23.17  12.87-22.75Q 14.48-22.33  16.25-21.56L 16.25-21.56L 14.69-17.8Q 12.86-18.55  11.66-18.84Q 10.47-19.14  9.31-19.14L 9.31-19.14Q 7.94-19.14  7.2-18.5Q 6.47-17.86  6.47-16.83L 6.47-16.83Q 6.47-16.19  6.77-15.71Q 7.06-15.23  7.71-14.79Q 8.36-14.34  10.78-13.19L 10.78-13.19Q 13.98-11.66  15.17-10.12Q 16.36-8.58  16.36-6.34ZM 34.265-22.84L 39.095-22.84L 39.095-8.06Q 39.095-5.53  37.965-3.63Q 36.825-1.72  34.685-0.7Q 32.545 0.31  29.625 0.31L 29.625 0.31Q 25.215 0.31  22.785-1.95Q 20.345-4.2  20.345-8.13L 20.345-8.13L 20.345-22.84L 25.175-22.84L 25.175-8.86Q 25.175-6.22  26.235-4.98Q 27.295-3.75  29.755000000000003-3.75L 29.755000000000003-3.75Q 32.125-3.75  33.195-4.99Q 34.265-6.23  34.265-8.89L 34.265-8.89L 34.265-22.84ZM 44.6925 0L 44.6925-22.84L 51.792500000000004-22.84Q 56.6525-22.84  58.8525-21.46Q 61.042500000000004-20.08  61.042500000000004-17.06L 61.042500000000004-17.06Q 61.042500000000004-15.02  60.082499999999996-13.7Q 59.1225-12.39  57.5325-12.13L 57.5325-12.13L 57.5325-11.97Q 59.7025-11.48  60.6625-10.16Q 61.6225-8.83  61.6225-6.63L 61.6225-6.63Q 61.6225-3.5  59.3625-1.75Q 57.1125 0  53.2325 0L 53.2325 0L 44.6925 0ZM 49.5325-18.88L 49.5325-13.8L 52.3425-13.8Q 54.3125-13.8  55.1925-14.41Q 56.082499999999996-15.02  56.082499999999996-16.42L 56.082499999999996-16.42Q 56.082499999999996-17.73  55.1125-18.3Q 54.1525-18.88  52.082499999999996-18.88L 52.082499999999996-18.88L 49.5325-18.88ZM 52.5325-9.95L 49.5325-9.95L 49.5325-4L 52.6925-4Q 54.6925-4  55.6425-4.77Q 56.5925-5.53  56.5925-7.11L 56.5925-7.11Q 56.5925-9.95  52.5325-9.95L 52.5325-9.95ZM 71.0325 0L 66.1925 0L 66.1925-22.84L 71.0325-22.84L 71.0325 0ZM 81.62625000000001-18.88L 81.62625000000001-12.7L 83.18625000000002-12.7Q 85.48625000000001-12.7  86.57625000000002-13.47Q 87.67625000000001-14.23  87.67625000000001-15.88L 87.67625000000001-15.88Q 87.67625000000001-17.5  86.55625000000002-18.19Q 85.43625000000002-18.88  83.09625000000001-18.88L 83.09625000000001-18.88L 81.62625000000001-18.88ZM 84.20625000000001-8.77L 81.62625000000001-8.77L 81.62625000000001 0L 76.78625000000001 0L 76.78625000000001-22.84L 83.43625000000002-22.84Q 88.09625000000001-22.84  90.32625000000002-21.15Q 92.56625000000001-19.45  92.56625000000001-16L 92.56625000000001-16Q 92.56625000000001-13.98  91.45625000000001-12.41Q 90.34625000000001-10.84  88.31625000000001-9.95L 88.31625000000001-9.95Q 93.46625000000002-2.25  95.03625000000001 0L 95.03625000000001 0L 89.65625000000001 0L 84.20625000000001-8.77ZM 118.64125-11.45L 118.64125-11.45Q 118.64125-5.78  115.83125-2.73Q 113.01125 0.31  107.76125 0.31L 107.76125 0.31Q 102.51125 0.31  99.70125-2.73Q 96.89125-5.78  96.89125-11.48L 96.89125-11.48Q 96.89125-17.19  99.71125-20.2Q 102.53125-23.2  107.80125-23.2L 107.80125-23.2Q 113.06125-23.2  115.85125-20.17Q 118.64125-17.14  118.64125-11.45ZM 101.97125-11.45L 101.97125-11.45Q 101.97125-7.63  103.42125-5.69Q 104.87125-3.75  107.76125-3.75L 107.76125-3.75Q 113.56125-3.75  113.56125-11.45L 113.56125-11.45Q 113.56125-19.17  107.80125-19.17L 107.80125-19.17Q 104.91125-19.17  103.44125-17.23Q 101.97125-15.28  101.97125-11.45Z" data-box="78.23 164.62 143.54 28.80 " transform="matrix(1.2250106218467598 0 0 1.2250106218467598 76.43122181214993 193.04106887830818)" />
  <path data-refid="slogan" fill="#0f1223" d="M 3 0.21Q 2.31 0.21  1.67 0.07Q 1.04-0.07  0.59-0.31L 0.59-0.31L 0.77-1.99Q 1.25-1.69  1.82-1.51Q 2.39-1.33  2.9-1.33L 2.9-1.33Q 3.37-1.33  3.7-1.51Q 4.02-1.68  4.02-2.02L 4.02-2.02Q 4.02-2.28  3.79-2.43Q 3.57-2.58  2.94-2.8L 2.94-2.8L 2.56-2.94Q 1.96-3.16  1.58-3.37Q 1.2-3.57  0.9-3.99Q 0.59-4.41  0.59-5.1L 0.59-5.1Q 0.59-6.19  1.41-6.8Q 2.23-7.41  3.54-7.41L 3.54-7.41Q 4.58-7.41  5.73-7L 5.73-7L 5.46-5.33Q 5.05-5.57  4.54-5.72Q 4.03-5.87  3.58-5.87L 3.58-5.87Q 3.12-5.87  2.85-5.71Q 2.58-5.56  2.58-5.26L 2.58-5.26Q 2.58-4.98  2.8-4.84Q 3.02-4.7  3.56-4.52L 3.56-4.52Q 3.98-4.37  4.05-4.34L 4.05-4.34Q 4.63-4.1  5.03-3.88Q 5.42-3.65  5.71-3.21Q 6.01-2.77  6.01-2.09L 6.01-2.09Q 6.01-0.94  5.18-0.36Q 4.35 0.21  3 0.21L 3 0.21ZM 10.126 0.21Q 9.116 0.21  8.565999999999999-0.3Q 8.006-0.81  8.006-1.75L 8.006-1.75L 8.006-5.52L 6.886-5.52L 6.886-7.21L 8.006-7.21L 8.006-8.75Q 9.006-8.92  9.966-9L 9.966-9L 9.966-7.21L 11.786-7.21L 11.786-5.52L 9.966-5.52L 9.966-2.11Q 9.966-1.82  10.146-1.67Q 10.315999999999999-1.51  10.636-1.51L 10.636-1.51Q 11.036-1.51  11.536-1.69L 11.536-1.69L 11.966000000000001-0.21Q 11.076 0.21  10.126 0.21L 10.126 0.21ZM 15.760000000000002 0.2Q 14.620000000000001 0.2  13.96-0.5Q 13.3-1.2  13.3-2.42L 13.3-2.42L 13.3-7.21L 15.270000000000001-7.21L 15.270000000000001-2.74Q 15.270000000000001-2.17  15.55-1.85Q 15.830000000000002-1.54  16.310000000000002-1.54L 16.310000000000002-1.54Q 16.79-1.54  17.23-1.85Q 17.67-2.16  17.96-2.67L 17.96-2.67L 17.96-7.21L 19.94-7.21L 19.94 0L 17.96 0L 17.96-0.95Q 17.560000000000002-0.41  17.03-0.1Q 16.51 0.2  15.760000000000002 0.2L 15.760000000000002 0.2ZM 24.006000000000004 0.21Q 22.796000000000003 0.21  22.096000000000004-0.72Q 21.406000000000002-1.65  21.406000000000002-3.32L 21.406000000000002-3.32Q 21.406000000000002-5.29  22.436000000000003-6.35Q 23.466000000000005-7.41  25.366000000000003-7.41L 25.366000000000003-7.41Q 25.606-7.41  26.086000000000006-7.38L 26.086000000000006-7.38L 26.086000000000006-10.22L 28.026000000000003-10.22L 28.026000000000003 0L 26.106 0L 26.156000000000002-0.94L 26.096000000000004-0.94Q 25.736000000000004-0.38  25.206000000000003-0.08Q 24.686000000000003 0.21  24.006000000000004 0.21L 24.006000000000004 0.21ZM 24.456000000000003-1.51Q 24.906000000000002-1.51  25.326000000000004-1.9Q 25.746000000000002-2.28  26.086000000000006-3L 26.086000000000006-3L 26.086000000000006-5.56Q 25.606-5.68  25.176000000000002-5.68L 25.176000000000002-5.68Q 24.286000000000005-5.68  23.836000000000006-5.11Q 23.376000000000005-4.54  23.376000000000005-3.43L 23.376000000000005-3.43Q 23.376000000000005-2.53  23.666000000000004-2.02Q 23.956000000000003-1.51  24.456000000000003-1.51L 24.456000000000003-1.51ZM 30.673999999999996-8.4L 30.673999999999996-10.22L 32.92399999999999-10.22L 32.92399999999999-8.4L 30.673999999999996-8.4ZM 29.583999999999996 0L 29.583999999999996-1.69L 30.923999999999996-1.69L 30.923999999999996-5.52L 29.583999999999996-5.52L 29.583999999999996-7.21L 32.903999999999996-7.21L 32.903999999999996-1.69L 34.104-1.69L 34.104 0L 29.583999999999996 0ZM 38.596 0.21Q 37.50599999999999 0.21  36.675999999999995-0.27Q 35.83599999999999-0.74  35.376-1.6Q 34.916-2.46  34.916-3.6L 34.916-3.6Q 34.916-4.73  35.376-5.59Q 35.82599999999999-6.45  36.65599999999999-6.93Q 37.495999999999995-7.41  38.586-7.41L 38.586-7.41Q 39.675999999999995-7.41  40.50599999999999-6.94Q 41.346-6.47  41.79599999999999-5.61Q 42.25599999999999-4.76  42.25599999999999-3.64L 42.25599999999999-3.64Q 42.25599999999999-2.51  41.79599999999999-1.63Q 41.346-0.76  40.50599999999999-0.27Q 39.675999999999995 0.21  38.596 0.21L 38.596 0.21ZM 38.586-1.5Q 39.336-1.5  39.79599999999999-2.08Q 40.245999999999995-2.66  40.245999999999995-3.61L 40.245999999999995-3.61Q 40.245999999999995-4.56  39.79599999999999-5.13Q 39.336-5.7  38.586-5.7L 38.586-5.7Q 37.82599999999999-5.7  37.376-5.13Q 36.916-4.56  36.916-3.61L 36.916-3.61Q 36.916-2.66  37.376-2.08Q 37.82599999999999-1.5  38.586-1.5L 38.586-1.5Z" data-box="124.83 202.42 50.33 12.60 " transform="matrix(1.208053655928215 0 0 1.208053655928215 124.11986626752548 214.7671302030259)" />
</svg>